<?xml version="1.0" encoding="UTF-8"?>
<svg id="_000" xmlns="http://www.w3.org/2000/svg" version="1.1" viewBox="0 0 1350 1350">
  <!-- Generator: Adobe Illustrator 29.0.0, SVG Export Plug-In . SVG Version: 2.1.0 Build 186)  -->
  <defs>
    <style>
      .st0 {
        fill: #ccc;
      }
    </style>
  </defs>
  <path class="st0" d="M899.8,1023.9l-141.1-387.8c50.6-28.4,84.9-82.6,84.9-144.7,0-91.5-74.3-165.9-165.9-165.9s-143.7,54.1-161.3,126.8h-102.1c-21.6,0-39,17.5-39,39s17.5,39,39,39h102.1c11,45.4,40.5,83.5,80.3,105.7l-141.1,387.8c-7.3,19.9,3.4,41.8,23.6,49.2,20.3,7.3,42.5-2.7,49.7-22.6l109.8-301.5v288.4c0,21.1,17.5,38.1,39,38.1s39-17.1,39-38.1v-288.4l109.8,301.5c7.3,19.9,29.5,29.8,49.7,22.6,20.3-7.3,30.8-29.4,23.6-49.2h-.2ZM677.7,517.1l-55.4,55.4-25.7-25.7,55.4-55.4-55.4-55.4,25.7-25.7,55.4,55.4,55.4-55.4,25.7,25.7-55.4,55.4,55.4,55.4-25.7,25.7-55.4-55.4h0Z"/>
</svg>