<?xml version="1.0" encoding="UTF-8"?>
<svg id="_000" xmlns="http://www.w3.org/2000/svg" version="1.1" viewBox="0 0 1350 1350">
  <!-- Generator: Adobe Illustrator 29.0.0, SVG Export Plug-In . SVG Version: 2.1.0 Build 186)  -->
  <defs>
    <style>
      .st0 {
        fill: #ccc;
      }
    </style>
  </defs>
  <path class="st0" d="M965.9,1105.8l-176.8-486c63.4-35.6,106.4-103.5,106.4-181.4,0-114.7-93.1-207.9-207.9-207.9s-180.1,67.8-202.1,158.9h-128c-27.1,0-48.9,21.9-48.9,48.9s21.9,48.9,48.9,48.9h128c13.8,56.9,50.8,104.6,100.6,132.5l-176.8,486c-9.1,24.9,4.2,52.4,29.6,61.7,25.4,9.2,53.3-3.4,62.3-28.3l137.6-377.9v361.4c0,26.4,21.9,47.8,48.9,47.8s48.9-21.4,48.9-47.8v-361.4l137.6,377.9c9.1,24.9,37,37.4,62.3,28.3,25.4-9.2,38.6-36.8,29.6-61.7h-.2ZM687.5,470.7l-69.4,69.4-32.2-32.2,69.4-69.4-69.4-69.4,32.2-32.2,69.4,69.4,69.4-69.4,32.2,32.2-69.4,69.4,69.4,69.4-32.2,32.2-69.4-69.4Z"/>
</svg>