<?xml version="1.0" encoding="UTF-8"?>
<svg id="_000" xmlns="http://www.w3.org/2000/svg" version="1.1" viewBox="0 0 1344 1344">
  <!-- Generator: Adobe Illustrator 29.5.1, SVG Export Plug-In . SVG Version: 2.1.0 Build 141)  -->
  <defs>
    <style>
      .st0 {
        fill: #ccc;
      }
    </style>
  </defs>
  <path class="st0" d="M960.3,1099l-175.2-481.7c62.8-35.3,105.5-102.6,105.5-179.8,0-113.7-92.3-206.1-206.1-206.1s-178.5,67.2-200.3,157.5h-126.9c-26.9,0-48.5,21.7-48.5,48.5s21.7,48.5,48.5,48.5h126.9c13.7,56.4,50.3,103.7,99.7,131.3l-175.2,481.7c-9,24.7,4.2,51.9,29.3,61.2,25.2,9.1,52.8-3.4,61.7-28l136.4-374.5v358.2c0,26.2,21.7,47.4,48.5,47.4s48.5-21.2,48.5-47.4v-358.2l136.4,374.5c9,24.7,36.7,37.1,61.7,28,25.2-9.1,38.3-36.5,29.3-61.2h-.2ZM684.4,469.5l-68.8,68.8-31.9-31.9,68.8-68.8-68.8-68.8,31.9-31.9,68.8,68.8,68.8-68.8,31.9,31.9-68.8,68.8,68.8,68.8-31.9,31.9-68.8-68.8h0Z"/>
</svg>