<?xml version="1.0" encoding="UTF-8"?>
<svg id="_000" xmlns="http://www.w3.org/2000/svg" version="1.1" viewBox="0 0 1350 1350">
  <!-- Generator: Adobe Illustrator 29.4.0, SVG Export Plug-In . SVG Version: 2.1.0 Build 152)  -->
  <defs>
    <style>
      .st0 {
        fill: #ccc;
      }
    </style>
  </defs>
  <path class="st0" d="M885.22,1005.91l-133.27-366.17c47.82-26.81,80.14-77.97,80.14-136.69,0-86.49-70.12-156.61-156.61-156.61-73.8,0-135.67,51.05-152.24,119.76h-96.5c-20.35,0-36.85,16.5-36.85,36.85s16.5,36.85,36.85,36.85h96.5c10.34,42.85,38.29,78.83,75.77,99.84l-133.27,366.17c-6.81,18.71,3.17,39.52,22.3,46.48,19.12,6.96,40.15-2.56,46.96-21.27l103.64-284.76v272.26c0,19.91,16.5,36.05,36.85,36.05s36.85-16.14,36.85-36.05v-272.26l103.64,284.76c6.81,18.71,27.83,28.23,46.96,21.27,19.12-6.96,29.11-27.77,22.3-46.48h-.02ZM675.47,527.34l-52.34,52.34-24.29-24.29,52.34-52.34-52.34-52.34,24.29-24.29,52.34,52.34,52.34-52.34,24.29,24.29-52.34,52.34,52.34,52.34-24.29,24.29-52.34-52.34Z"/>
</svg>