<?xml version="1.0" encoding="UTF-8"?>
<svg id="_000" xmlns="http://www.w3.org/2000/svg" version="1.1" viewBox="0 0 1350 1350">
  <!-- Generator: Adobe Illustrator 29.4.0, SVG Export Plug-In . SVG Version: 2.1.0 Build 152)  -->
  <defs>
    <style>
      .st0 {
        fill: #ccc;
      }
    </style>
  </defs>
  <path class="st0" d="M954.46,1091.65l-170.69-468.98c61.25-34.34,102.64-99.86,102.64-175.07,0-110.77-89.81-200.58-200.58-200.58-94.52,0-173.76,65.38-194.99,153.39h-123.6c-26.06,0-47.2,21.13-47.2,47.2s21.13,47.2,47.2,47.2h123.6c13.24,54.88,49.04,100.96,97.04,127.87l-170.69,468.98c-8.72,23.96,4.06,50.62,28.56,59.53,24.49,8.91,51.42-3.28,60.15-27.24l132.74-364.71v348.71c0,25.5,21.13,46.17,47.2,46.17s47.2-20.67,47.2-46.17v-348.71l132.74,364.71c8.72,23.96,35.64,36.16,60.15,27.24,24.49-8.91,37.28-35.57,28.56-59.53h-.03ZM685.81,478.71l-67.04,67.04-31.11-31.11,67.04-67.04-67.04-67.04,31.11-31.11,67.04,67.04,67.04-67.04,31.11,31.11-67.04,67.04,67.04,67.04-31.11,31.11-67.04-67.04Z"/>
</svg>