<?xml version="1.0" encoding="UTF-8"?>
<svg id="_000" xmlns="http://www.w3.org/2000/svg" version="1.1" viewBox="0 0 1350 1350">
  <!-- Generator: Adobe Illustrator 29.0.0, SVG Export Plug-In . SVG Version: 2.1.0 Build 186)  -->
  <defs>
    <style>
      .st0 {
        fill: #ff5517;
      }
    </style>
  </defs>
  <path class="st0" d="M675.5,346.4c86.5,0,156.6,70.1,156.6,156.6s-32.3,109.9-80.1,136.7l133.3,366.2c6.8,18.7-3.2,39.5-22.3,46.5-4.2,1.6-8.6,2.3-12.8,2.3-14.9,0-28.8-9-34.1-23.6l-103.6-284.8v272.3c0,19.9-16.5,36.1-36.8,36.1s-36.8-16.1-36.8-36v-272.3l-103.6,284.8c-5.3,14.6-19.2,23.6-34.1,23.6s-8.6-.7-12.8-2.3c-19.1-7-29.1-27.8-22.3-46.5l133.3-366.2c-37.5-21-65.4-57-75.8-99.8h-96.5c-20.4,0-36.9-16.5-36.9-36.9s16.5-36.9,36.9-36.9h96.5c16.6-68.7,78.4-119.8,152.2-119.8M675.5,311.4c-22.1,0-43.7,3.7-64.3,11.1-19.9,7.1-38.5,17.4-55.1,30.7-25.8,20.6-45.9,47.7-58.2,78h-71.1c-39.6,0-71.9,32.2-71.9,71.9s32.2,71.9,71.9,71.9h71.1c12.5,30.8,32.9,57.9,58.9,78.5l-123.9,340.5c-13.4,36.8,6,77.8,43.2,91.3,8,2.9,16.4,4.4,24.8,4.4,14.4,0,28.4-4.3,40.3-12.3,12.4-8.4,21.6-20.2,26.7-34.2l35.8-98.2v73.8c0,39.2,32.2,71.1,71.8,71.1s71.8-31.9,71.8-71v-73.8l35.8,98.2c5.1,14,14.3,25.8,26.7,34.2,11.9,8.1,25.8,12.3,40.3,12.3s16.8-1.5,24.8-4.4c17.9-6.5,32.3-19.5,40.5-36.6,8.3-17.3,9.3-36.8,2.8-54.8l-123.9-340.5c18.2-14.4,33.8-32.1,45.8-52.1,17.7-29.6,27.1-63.6,27.1-98.3s-5.1-51-15.1-74.6c-9.7-22.8-23.5-43.3-41-60.9-17.6-17.6-38.1-31.4-60.9-41-23.7-10-48.7-15.1-74.6-15.1h0Z"/>
  <polygon class="st0" points="675.5 527.3 623.1 579.7 598.8 555.4 651.2 503 598.8 450.7 623.1 426.4 675.5 478.8 727.8 426.4 752.1 450.7 699.8 503 752.1 555.4 727.8 579.7 675.5 527.3"/>
</svg>